PathFileType	4	(X/Y/Z)	13_2_35_p1_0-317_filt_butterworth.trc
DataRate	CameraRate	NumFrames	NumMarkers	Units	OrigDataRate	OrigDataStartFrame	OrigNumFrames
59.0	59.0	5	27	m	59.0	0	317
Frame#	Time	RHip			RKnee			RAnkle			RBigToe			RSmallToe			RHeel			LHip			LKnee			LAnkle			LBigToe			LSmallToe			LHeel			Neck			Head			Nose			RShoulder			RElbow			RWrist			RThumb			RIndex			RPinky			LShoulder			LElbow			LWrist			LThumb			LIndex			LPinky			
		X1	Y1	Z1	X2	Y2	Z2	X3	Y3	Z3	X4	Y4	Z4	X5	Y5	Z5	X6	Y6	Z6	X7	Y7	Z7	X8	Y8	Z8	X9	Y9	Z9	X10	Y10	Z10	X11	Y11	Z11	X12	Y12	Z12	X13	Y13	Z13	X14	Y14	Z14	X15	Y15	Z15	X16	Y16	Z16	X17	Y17	Z17	X18	Y18	Z18	X19	Y19	Z19	X20	Y20	Z20	X21	Y21	Z21	X22	Y22	Z22	X23	Y23	Z23	X24	Y24	Z24	X25	Y25	Z25	X26	Y26	Z26	X27	Y27	Z27	
0	0.0	0.2642475096332869	0.4199233547870754	1.1399678619969953	0.2782015072482108	-0.044858228229328556	1.1747792560270347	0.26861141267205396	-0.47602327589180116	1.226185130091698	0.2615852140404378	-0.45623766842206326	0.9817523992727105	0.3332934178544093	-0.46223816863822864	1.0188114754628117	0.24911338808576106	-0.5362085187139246	1.2729595173592256	0.06829478251554534	0.4067771981225889	1.1401823468418057	0.0678087812182261	-0.0340003832105466	1.1495336520185064	0.06837581577093924	-0.4547181467009994	1.165944468570658	0.08425393073753683	-0.4837596831823628	1.0133935511058505	0.031143089864091436	-0.47747348105740106	1.0355449143695863	0.08588309226959608	-0.52176787990019	1.2459916391545731	0.16577207093562424	0.9260781727776057	1.1573499509593415	0.18829623285189392	1.1853276166718407	1.0935418717814391	0.18762514764782484	1.0446021578075522	1.0530407912572488	0.3177246123292745	0.8555052751850725	1.1324393373533563	0.3196122012771213	0.6294032424867344	1.0431831960699263	0.214599921767804	0.46675571512980746	0.8587320234644019	0.15661408255644013	0.3660662022074232	0.9018684012272026	0.1734419056520332	0.32207147262806557	0.9004648762117642	0.18182386638020562	0.3282084378610991	0.8880638129661349	0.030812925674893295	0.8606049214707822	1.1477108714854447	-0.003434744123424015	0.6173952714700282	1.0374806845754898	0.0956740229956278	0.43916240498439174	0.9648102353453188	0.1678973976701219	0.40110277391828253	0.9043453554476772	0.16412123771956372	0.34569658967990063	0.9002659165057991	0.15533364068250302	0.3388062388518531	0.9043430285617726	
1	0.0169491525423728	0.26442348214944184	0.4194294240388365	1.1382193308142052	0.2782426551440922	-0.04465526112616486	1.1750093095046819	0.2680243754721858	-0.4772515376943114	1.2288598759639398	0.2598181004718972	-0.4599013462782584	0.9873081710253688	0.3289857991571581	-0.4637555417880626	1.0201625702932373	0.2501695877350507	-0.5360001014049939	1.2734697225232818	0.06650012539351162	0.40498582873661776	1.1420590548953369	0.06769022761977538	-0.03295471088225588	1.15012292454175	0.06856818704453202	-0.45386496935931653	1.165228007276308	0.08347724612583152	-0.47714876167271997	1.0060773289940472	0.03152569057022146	-0.4752586547756066	1.035529115921293	0.08609814256296182	-0.5204559210403832	1.2444810289022106	0.16576852233233	0.9263147040971038	1.1573062370342369	0.18832262082783016	1.185323866376937	1.0932885539959551	0.18738558760374277	1.0462765602747017	1.0526899077574081	0.31858439450386417	0.8552016794164987	1.1346124017680312	0.3175659404175153	0.6303636678128709	1.048182685609102	0.21275872288243844	0.46305982746081725	0.8642376999314911	0.15705210717026366	0.36253936774781137	0.9090869920855771	0.1711569836949463	0.320091207403129	0.9080264638152236	0.17757958286908251	0.3243849032437369	0.9011220240169482	0.030551823875307492	0.8603406288156273	1.1483915988034115	-0.0012616818052896134	0.6138816129462454	1.0382755077723609	0.09685786270046504	0.4365793000569095	0.9575060774765171	0.17112432422309923	0.3914309125889704	0.9067684594720842	0.16452035587257	0.3405040228175094	0.9028471368679433	0.15643082148934773	0.33284822570453265	0.9057900845413069	
2	0.0338983050847457	0.264473728083444	0.419075374304511	1.1368135275161295	0.2782948355612576	-0.044630624292369414	1.175195674601985	0.2675214101070608	-0.4781219028138376	1.2310950892077683	0.2585819885339738	-0.4623318266188581	0.9912755010739318	0.32624729959139226	-0.46473658350161556	1.0210636284215273	0.2510601205455365	-0.5355328964409741	1.2738765385748356	0.06498915004860537	0.40359083073314134	1.143791836666618	0.06758511339015345	-0.03211461071385446	1.1504620380542672	0.06874255009951268	-0.4530571595845362	1.1647235145078108	0.0829529288309033	-0.4729338639423645	1.0014318520419667	0.031792674858499854	-0.4738595256564667	1.0355433478642007	0.08633779570038684	-0.5194791722976486	1.2434738464685111	0.16577456023722248	0.9261225317599674	1.1571718744722044	0.18833646420285224	1.1853227642274966	1.0931348452055465	0.18722993343803826	1.047342064384765	1.0524721387432876	0.3184922019212864	0.8551785969035529	1.1347250324260147	0.3157733973347184	0.6306932012015735	1.0516514910276225	0.21075650457288683	0.4599498636277035	0.8688714182485482	0.1569337651935947	0.35908427924368785	0.9139102805485677	0.16931212165336604	0.31839480399012016	0.9144789293401494	0.17487185085364956	0.32175878312867734	0.9093906820895925	0.030505941045944316	0.8602504519168598	1.1485602747721073	0.0010241164956890213	0.611481821309598	1.0392773265214978	0.09833447113944835	0.43564006963839075	0.9517519760167277	0.1725825199227779	0.38502166341445065	0.9066404051551762	0.1648296387733332	0.3383411473363174	0.9018414519927818	0.15684154101751463	0.3294861014054623	0.9060470186900684	
3	0.0508474576271186	0.2644115093635369	0.4188508039715365	1.1357162502690044	0.27835417506422805	-0.044762224418654295	1.1753396711287623	0.26709643959032037	-0.4786665862618707	1.2329227712234514	0.2577904471531003	-0.4637425256352552	0.9939096227525578	0.32478055442272263	-0.4652813310683433	1.0215985221285289	0.25179679088471846	-0.5348380526024568	1.274187981167568	0.06373852035296297	0.4025620006748431	1.1453760953962961	0.06749226156944722	-0.031459643287244266	1.1505769744549987	0.06889847233924302	-0.45229338667197855	1.1644064164762622	0.08264126708901487	-0.47065449771521317	0.9989451658075429	0.031962676791738545	-0.4731209160480066	1.0355813726417638	0.08659799147332568	-0.51880737487745	1.242921992388982	0.16578484185941916	0.9256169108491956	1.1569785175770737	0.18834007883930096	1.1853242323812576	1.0930585390076692	0.18714249600088348	1.0479158976439233	1.05236169153363	0.3176693403666733	0.8553771738302289	1.133256358844678	0.314243339415229	0.6305160200103064	1.0538467607736466	0.2087112853465176	0.45735684414602085	0.8726852487473544	0.15634902055994013	0.3558316744263051	0.916679469989572	0.16782668331413156	0.317039359577048	0.9197081746829431	0.17340216467577826	0.32011878917747943	0.9137902530212847	0.030605098780715042	0.8602847741273463	1.14838941176349	0.0033359648449896298	0.6100212886778759	1.040413795744894	0.0999590686815292	0.436008550424675	0.9472546718605679	0.17262893139878113	0.38127644543580924	0.9046262604173193	0.16502247734828313	0.3385500128599052	0.8981793556499578	0.15672387550869493	0.32819835297466154	0.9054341375162175	
4	0.0677966101694915	0.26425008791796406	0.41874531142735055	1.134893297239066	0.2784168002175244	-0.04502796819573118	1.1754426188948324	0.2667433869356062	-0.47891780304990206	1.2343749234112569	0.2573570452557094	-0.46434685951884236	0.9954657693954045	0.3242881989167601	-0.4654898217777015	1.0218511236950893	0.2523914031200966	-0.5339467186700317	1.2744120659551583	0.06272490017872077	0.4018691351244069	1.1468072343250193	0.06741049519774357	-0.03096936918432769	1.1504937156428845	0.06903552116708489	-0.4515723199169631	1.1642521393927596	0.08250254913642889	-0.4698501707151823	0.9981053158487107	0.03205433043274947	-0.4728876482982513	1.0356369526974356	0.08687466967323286	-0.5184102699852516	1.2427773671991307	0.16579402440803742	0.9249130964477874	1.156757820652675	0.18833578059951697	1.185328192995956	1.0930374289997786	0.18710758614245052	1.0481152875583604	1.0523327734471781	0.3163371156251571	0.8557385563805193	1.1306855105413929	0.31298453404554544	0.6299563015965333	1.0550256432953347	0.20674108371069913	0.4552117895313241	0.8757312617596918	0.1553878372028069	0.35291229102691557	0.9177357637819876	0.166620032464082	0.3160819713519216	0.9236001017400057	0.17287201867734006	0.31925363305170207	0.915241202649242	0.03077911867353093	0.8603939787999555	1.1480515221495184	0.005587177308089954	0.6093254071688682	1.0416125703645438	0.10158687569565912	0.43734857911160196	0.9437209059026557	0.17162050528073208	0.37959667769413225	0.9013910931788796	0.1650722625238495	0.34047266901185286	0.8927913416091142	0.15623590120457984	0.32846346743214944	0.9042717475279143	
